<?xml version="1.0" encoding="UTF-8" standalone="no"?>
<svg
   xmlns:dc="http://purl.org/dc/elements/1.1/"
   xmlns:cc="http://creativecommons.org/ns#"
   xmlns:rdf="http://www.w3.org/1999/02/22-rdf-syntax-ns#"
   xmlns:svg="http://www.w3.org/2000/svg"
   xmlns="http://www.w3.org/2000/svg"
   xmlns:sodipodi="http://sodipodi.sourceforge.net/DTD/sodipodi-0.dtd"
   xmlns:inkscape="http://www.inkscape.org/namespaces/inkscape"
   version="1.1"
   id="svg3642"
   inkscape:version="0.91 r13725"
   sodipodi:docname="buttons_expanded.svg">
  <metadata
     id="metadata3650">
    <rdf:RDF>
      <cc:Work
         rdf:about="">
        <dc:format>image/svg+xml</dc:format>
        <dc:type
           rdf:resource="http://purl.org/dc/dcmitype/StillImage" />
      </cc:Work>
    </rdf:RDF>
  </metadata>
  <defs
     id="defs3648" />
  <sodipodi:namedview
     pagecolor="#ffffff"
     bordercolor="#666666"
     borderopacity="1"
     objecttolerance="10"
     gridtolerance="10"
     guidetolerance="10"
     inkscape:pageopacity="0"
     inkscape:pageshadow="2"
     inkscape:window-width="1916"
     inkscape:window-height="1035"
     id="namedview3646"
     showgrid="false"
     inkscape:zoom="0.543125"
     inkscape:cx="50"
     inkscape:cy="8.5730725"
     inkscape:window-x="4"
     inkscape:window-y="1"
     inkscape:window-maximized="1"
     inkscape:current-layer="svg3642" />
  <path
     d="m 34.401612,-231.30034 c -149.867002,0 -272.000002,115.34 -285.006002,261.986996 -7.427,83.740004 -10.023,143.714004 -17.296,180.188004 -6.448,33.317 -20.448,76.317 -39.618,125.141 -4.604,11.727 -13.086,36.586 -13.08,64.17 0.019,89.178 70.992,163.013 163.5,163.008 40.25,-0.002 99.050002,-16.392 138.578002,-76.222 16.9220003,-25.613 47.342,-83.14 103.664,-117.16 78.007998,-47.12 111.211998,-72.57 149.067998,-109.503 54.19,-52.867 86.19,-124.424 86.19,-204.625004 0,-157.952996 -128.047,-285.999996 -285.999998,-285.999996 z"
     id="path3644"
     inkscape:connector-curvature="0"
     style="stroke:#0000ff;stroke-width:4" />
  <circle
     style="fill:#ff0000;fill-rule:evenodd;stroke:#000000;stroke-width:0.76803422px;stroke-linecap:butt;stroke-linejoin:miter;stroke-opacity:1"
     id="path3652"
     cx="38.665131"
     cy="53.970085"
     r="289.1839" />
  <circle
     style="fill:#008080;fill-rule:evenodd;stroke:#000000;stroke-width:1.40770519px;stroke-linecap:butt;stroke-linejoin:miter;stroke-opacity:1"
     id="path3656"
     cx="-157.42233"
     cy="401.03568"
     r="164.58325" />
</svg>
